<?xml version="1.0" encoding="UTF-8"?>
<svg version="1.1" xmlns="http://www.w3.org/2000/svg" width="118" height="111">
<path d="M0 0 C38.94 0 77.88 0 118 0 C118 36.63 118 73.26 118 111 C79.06 111 40.12 111 0 111 C0 74.37 0 37.74 0 0 Z " fill="#E7EFF1" transform="translate(0,0)"/>
<path d="M0 0 C38.94 0 77.88 0 118 0 C118 36.63 118 73.26 118 111 C79.06 111 40.12 111 0 111 C0 74.37 0 37.74 0 0 Z M16.5489502 12.5546875 C14.44117019 15.88221915 14.43936665 18.82439904 14.48242188 22.64257812 C14.4754126 23.40726913 14.46840332 24.17196014 14.46118164 24.95982361 C14.4435965 27.48400334 14.45522551 30.00705915 14.46875 32.53125 C14.46605522 34.28715225 14.46217291 36.04305305 14.45715332 37.7989502 C14.45125759 41.47760232 14.45982345 45.15586574 14.47851562 48.83447266 C14.50130544 53.54921661 14.48818272 58.26304978 14.46422577 62.97776031 C14.44976968 66.60319884 14.45437286 70.22842154 14.46473694 73.85386658 C14.46740476 75.59219979 14.4641325 77.33055261 14.45481873 79.06886292 C14.44465594 81.49891033 14.46014869 83.92748419 14.48242188 86.35742188 C14.47432495 87.07546494 14.46622803 87.793508 14.45788574 88.53330994 C14.51197296 91.71945762 14.83255821 93.73691144 16.55567932 96.44432068 C19.87613669 98.55761413 22.81131624 98.5681992 26.62670898 98.53344727 C27.77133606 98.54637062 27.77133606 98.54637062 28.93908691 98.55955505 C31.45843549 98.58223465 33.97667342 98.57547268 36.49609375 98.56640625 C38.24960155 98.57164127 40.00310652 98.57791731 41.75660706 98.58518982 C45.43105319 98.59559789 49.10511217 98.59102731 52.77954102 98.57641602 C57.48535632 98.55923409 62.18994997 98.58271327 66.89562893 98.61790562 C70.51683117 98.63988154 74.13774123 98.63843762 77.75898933 98.6301403 C79.49371747 98.62932075 81.22846704 98.63618491 82.96313286 98.65091133 C85.39081429 98.66836027 87.81630273 98.65381446 90.24389648 98.63110352 C91.31556816 98.64864182 91.31556816 98.64864182 92.40888977 98.66653442 C96.06254327 98.5970955 97.93010531 98.04889558 100.9453125 95.9395752 C103.46468942 92.33518383 103.70154577 89.58370707 103.63110352 85.33569336 C103.63825882 84.58060989 103.64541412 83.82552643 103.65278625 83.04756165 C103.66964365 80.56103319 103.65029195 78.07631516 103.62890625 75.58984375 C103.62973514 73.85779166 103.6321953 72.12573964 103.63621521 70.39369202 C103.63907105 66.76799779 103.62439189 63.14292207 103.59692383 59.51733398 C103.56281549 54.87096441 103.56886949 50.22569876 103.5875864 45.57927608 C103.59815579 42.00442813 103.58921965 38.42983697 103.57420158 34.85501289 C103.56902055 33.14180832 103.56950064 31.42857692 103.57574654 29.7153759 C103.58119922 27.32130133 103.56082535 24.92880661 103.53344727 22.53491211 C103.53997314 21.82779083 103.54649902 21.12066956 103.55322266 20.39212036 C103.49186468 17.23571722 103.15483768 15.24361207 101.45005798 12.56141663 C98.09808235 10.42520985 95.11729134 10.43954737 91.265625 10.48242188 C90.49118042 10.4754126 89.71673584 10.46840332 88.91882324 10.46118164 C86.36218268 10.44359501 83.80665156 10.45522611 81.25 10.46875 C79.47167753 10.46605526 77.69335649 10.46217299 75.91503906 10.45715332 C72.18931032 10.45125739 68.46396536 10.45982413 64.73828125 10.47851562 C59.96300713 10.50130541 55.18863224 10.48818281 50.41339111 10.46422577 C46.74163032 10.44977025 43.07008265 10.45437261 39.39831543 10.46473694 C37.63765354 10.46740492 35.87697229 10.46413196 34.11633301 10.45481873 C31.65515913 10.44465692 29.1954405 10.46014747 26.734375 10.48242188 C26.0069812 10.47432495 25.2795874 10.46622803 24.53015137 10.45788574 C21.32390788 10.51163346 19.27655639 10.82458179 16.5489502 12.5546875 Z " fill="#122352" transform="translate(0,0)"/>
<path d="M0 0 C1.32 0 2.64 0 4 0 C4 6.27 4 12.54 4 19 C-5.1796875 19.1953125 -5.1796875 19.1953125 -8 19 C-10 17 -10 17 -10.265625 14.90625 C-10.25789063 13.71515625 -10.25789063 13.71515625 -10.25 12.5 C-10.25515625 11.7059375 -10.2603125 10.911875 -10.265625 10.09375 C-10 8 -10 8 -8 6 C-5.31160615 5.73008094 -2.70858064 5.91262643 0 6 C0 4.02 0 2.04 0 0 Z " fill="#353737" transform="translate(44,44)"/>
<path d="M0 0 C1.093125 -0.020625 2.18625 -0.04125 3.3125 -0.0625 C6 0 6 0 8 2 C8.1953125 4.6015625 8.1953125 4.6015625 8.125 7.625 C8.10695313 8.62789062 8.08890625 9.63078125 8.0703125 10.6640625 C8.04710938 11.43492188 8.02390625 12.20578125 8 13 C7.01 13 6.02 13 5 13 C4.67 10.03 4.34 7.06 4 4 C2.68 3.67 1.36 3.34 0 3 C0 6.3 0 9.6 0 13 C-1.32 13 -2.64 13 -4 13 C-4 9.7 -4 6.4 -4 3 C-5.32 3 -6.64 3 -8 3 C-8 6.3 -8 9.6 -8 13 C-9.32 13 -10.64 13 -12 13 C-12 8.71 -12 4.42 -12 0 C-7.23189927 -0.95362015 -4.68094516 -0.7390966 0 0 Z " fill="#2B2D2D" transform="translate(76,50)"/>
<path d="M0 0 C1.8125 1.1875 1.8125 1.1875 3 3 C3.1875 5.6875 3.1875 5.6875 3 8 C0.03 8 -2.94 8 -6 8 C-5.67 8.99 -5.34 9.98 -5 11 C-2.69 11 -0.38 11 2 11 C1.67 11.99 1.34 12.98 1 14 C-6.40256709 14.48541424 -6.40256709 14.48541424 -9 12.375 C-10.31035305 9.26291151 -10.55741927 7.34451564 -10 4 C-6.92988138 0.66672836 -4.55329316 -0.83876453 0 0 Z " fill="#373939" transform="translate(59,49)"/>
<path d="M0 0 C1.875 0.1875 1.875 0.1875 4 1 C5.25 3.5625 5.25 3.5625 6 6 C7.50559539 4.03617993 8.89131683 2.21736634 10 0 C10.99 0 11.98 0 13 0 C12.38188466 4.55315948 10.53234107 8.28459767 8.4375 12.3125 C7.9434668 13.28026367 7.9434668 13.28026367 7.43945312 14.26757812 C6.63175745 15.84785228 5.81662387 17.42432105 5 19 C3.68 19 2.36 19 1 19 C1 18.34 1 17.68 1 17 C1.66 16.67 2.32 16.34 3 16 C3.37394781 10.88937994 2.09289373 7.62180699 0 3 C0 2.01 0 1.02 0 0 Z " fill="#2D2E2E" transform="translate(85,50)"/>
<path d="M0 0 C1.35156675 1.65191491 2.679762 3.32294092 4 5 C4.46664063 5.5775 4.93328125 6.155 5.4140625 6.75 C5.87554688 7.348125 6.33703125 7.94625 6.8125 8.5625 C7.25207031 9.12066406 7.69164062 9.67882813 8.14453125 10.25390625 C9 12 9 12 8.76171875 14.02734375 C8 16 8 16 6 19 C5.34 19 4.68 19 4 19 C-0.53574091 12.76335625 -0.44701413 7.56198897 0 0 Z " fill="#1F336B" transform="translate(0,1)"/>
<path d="M0 0 C0.99 0 1.98 0 3 0 C3.33 3.3 3.66 6.6 4 10 C5.65 10 7.3 10 9 10 C9 6.7 9 3.4 9 0 C9.99 0 10.98 0 12 0 C12.05416188 1.60379341 12.09286638 3.20811406 12.125 4.8125 C12.14820313 5.70582031 12.17140625 6.59914063 12.1953125 7.51953125 C12 10 12 10 10 13 C8.125 13.3984375 8.125 13.3984375 6 13.375 C5.29875 13.38273437 4.5975 13.39046875 3.875 13.3984375 C2 13 2 13 0 10 C-0.1953125 7.51953125 -0.1953125 7.51953125 -0.125 4.8125 C-0.10695313 3.91144531 -0.08890625 3.01039062 -0.0703125 2.08203125 C-0.04710938 1.39496094 -0.02390625 0.70789062 0 0 Z " fill="#101111" transform="translate(20,50)"/>
<path d="M0 0 C0.66 0 1.32 0 2 0 C2 5.61 2 11.22 2 17 C-1.96 17.495 -1.96 17.495 -6 18 C-6 17.34 -6 16.68 -6 16 C-4.35 15.67 -2.7 15.34 -1 15 C-1.33 12.03 -1.66 9.06 -2 6 C-1.34 6 -0.68 6 0 6 C0 4.02 0 2.04 0 0 Z " fill="#030303" transform="translate(45,45)"/>
<path d="M0 0 C2.5625 0.1875 2.5625 0.1875 4.5625 2.1875 C4.02678571 5.72321429 4.02678571 5.72321429 2.5625 7.1875 C0.0625 7.3125 0.0625 7.3125 -2.4375 7.1875 C-3.4375 6.1875 -3.4375 6.1875 -3.5625 3.6875 C-3.39599509 0.35740177 -3.31519894 0.2550153 0 0 Z " fill="#DEE5E7" transform="translate(40.4375,52.8125)"/>
<path d="M0 0 C2.875 -0.125 2.875 -0.125 6 0 C8 2 8 2 8.1953125 4.6015625 C8.17210938 5.59929688 8.14890625 6.59703125 8.125 7.625 C8.10695313 8.62789062 8.08890625 9.63078125 8.0703125 10.6640625 C8.03550781 11.82035156 8.03550781 11.82035156 8 13 C7.01 13 6.02 13 5 13 C4.67 9.37 4.34 5.74 4 2 C2.68 2 1.36 2 0 2 C0 1.34 0 0.68 0 0 Z " fill="#141515" transform="translate(76,50)"/>
<path d="M0 0 C0.875 2.125 0.875 2.125 1 4 C-0.85625 3.7215625 -0.85625 3.7215625 -2.75 3.4375 C-5.76279577 3.05288777 -8.10010827 2.9125406 -11 4 C-10.65518813 1.41391095 -10.36805155 0.29989386 -8.3125 -1.375 C-4.95890697 -2.2813765 -3.07340505 -1.50255358 0 0 Z " fill="#AC4CF0" transform="translate(64,42)"/>
<path d="M0 0 C0.75 1.5625 0.75 1.5625 1 4 C-0.13084437 6.50286409 -1.52139516 8.67007722 -3 11 C-4.32 11 -5.64 11 -7 11 C-7 10.34 -7 9.68 -7 9 C-6.34 8.67 -5.68 8.34 -5 8 C-4.59270772 5.67843403 -4.25561323 3.3431213 -4 1 C-2.68 0.67 -1.36 0.34 0 0 Z " fill="#090909" transform="translate(93,58)"/>
<path d="M0 0 C0.33 0 0.66 0 1 0 C0.67 3.3 0.34 6.6 0 10 C-0.66 9.67 -1.32 9.34 -2 9 C-1.67 8.34 -1.34 7.68 -1 7 C-3.31 7.33 -5.62 7.66 -8 8 C-8.33 6.68 -8.66 5.36 -9 4 C-6.03 4 -3.06 4 0 4 C0 2.68 0 1.36 0 0 Z " fill="#AEB4B5" transform="translate(62,53)"/>
<path d="M0 0 C0.33 0.66 0.66 1.32 1 2 C2.66505297 2.67068684 4.33203853 3.3365795 6 4 C7.80135883 5.16233665 9.57272479 6.37236185 11.3125 7.625 C12.19550781 8.25664063 13.07851562 8.88828125 13.98828125 9.5390625 C14.98408203 10.26222656 14.98408203 10.26222656 16 11 C15.67 11.66 15.34 12.32 15 13 C9.72 9.7 4.44 6.4 -1 3 C-0.67 2.01 -0.34 1.02 0 0 Z " fill="#1A2C5E" transform="translate(102,93)"/>
<path d="M0 0 C1.32 0.33 2.64 0.66 4 1 C4.33 2.98 4.66 4.96 5 7 C4.01 7.33 3.02 7.66 2 8 C0.74335022 5.09399739 0 3.20395416 0 0 Z " fill="#232425" transform="translate(85,50)"/>
<path d="M0 0 C0 0.99 0 1.98 0 3 C-1.65 3 -3.3 3 -5 3 C-5 3.66 -5 4.32 -5 5 C-6.9375 4.6875 -6.9375 4.6875 -9 4 C-9.33 3.01 -9.66 2.02 -10 1 C-9.36191406 1.01160156 -8.72382812 1.02320313 -8.06640625 1.03515625 C-7.24011719 1.04417969 -6.41382813 1.05320313 -5.5625 1.0625 C-4.32693359 1.07990234 -4.32693359 1.07990234 -3.06640625 1.09765625 C-1.00836062 1.23267348 -1.00836062 1.23267348 0 0 Z " fill="#393B3B" transform="translate(44,58)"/>
<path d="M0 0 C2.31 0 4.62 0 7 0 C6.34 1.65 5.68 3.3 5 5 C2 4 2 4 0.8125 1.9375 C0.544375 1.298125 0.27625 0.65875 0 0 Z " fill="#1F326A" transform="translate(11,0)"/>
<path d="M0 0 C1.32 0.33 2.64 0.66 4 1 C4 2.65 4 4.3 4 6 C2.68 5.67 1.36 5.34 0 5 C0.66 5 1.32 5 2 5 C1.34 3.35 0.68 1.7 0 0 Z " fill="#080909" transform="translate(58,51)"/>
<path d="M0 0 C2 3 2 3 1.625 5.1875 C1.41875 5.785625 1.2125 6.38375 1 7 C-0.32 7 -1.64 7 -3 7 C-3 6.34 -3 5.68 -3 5 C-2.34 4.67 -1.68 4.34 -1 4 C-0.34786708 1.97536745 -0.34786708 1.97536745 0 0 Z " fill="#232425" transform="translate(89,62)"/>
</svg>
